REM MD5 d762501076a70982794979f08ae28823
FILE "Rally Cross 2 (USA) (Demo).bin" BINARY
  TRACK 01 MODE2/2352
    INDEX 01 00:00:00
  TRACK 02 AUDIO
    INDEX 00 02:33:74
    INDEX 01 02:37:74
  TRACK 03 AUDIO
    INDEX 00 07:14:42
    INDEX 01 07:18:42
REM LEADOUT 12:07:17
